<svg xmlns="http://www.w3.org/2000/svg" viewBox="0 0 900 520" width="100%" height="100%" style="background:#ffffff; font-family:-apple-system,BlinkMacSystemFont,Segoe UI,Roboto,sans-serif;">
<text x="450.0" y="32" text-anchor="middle" font-size="18" font-weight="bold" fill="#1e293b">B0 Sequential Fine-Tuning: Catastrophic Forgetting Curves</text>
<text x="450.0" y="52" text-anchor="middle" font-size="13" fill="#64748b">FewRel Track A (8 tasks × 10 relations, 5-shot, seed 2021) — M=0, No Replay</text>
<rect x="80" y="70" width="640" height="380" fill="#f8fafc" stroke="#cbd5e1" stroke-width="1.5" rx="4"/>
<line x1="80" y1="450.0" x2="720" y2="450.0" stroke="#e2e8f0" stroke-dasharray="4,4" stroke-width="1"/>
<text x="68" y="454.0" text-anchor="end" font-size="12" fill="#64748b" font-weight="500">0%</text>
<line x1="80" y1="374.0" x2="720" y2="374.0" stroke="#e2e8f0" stroke-dasharray="4,4" stroke-width="1"/>
<text x="68" y="378.0" text-anchor="end" font-size="12" fill="#64748b" font-weight="500">20%</text>
<line x1="80" y1="298.0" x2="720" y2="298.0" stroke="#e2e8f0" stroke-dasharray="4,4" stroke-width="1"/>
<text x="68" y="302.0" text-anchor="end" font-size="12" fill="#64748b" font-weight="500">40%</text>
<line x1="80" y1="222.0" x2="720" y2="222.0" stroke="#e2e8f0" stroke-dasharray="4,4" stroke-width="1"/>
<text x="68" y="226.0" text-anchor="end" font-size="12" fill="#64748b" font-weight="500">60%</text>
<line x1="80" y1="146.0" x2="720" y2="146.0" stroke="#e2e8f0" stroke-dasharray="4,4" stroke-width="1"/>
<text x="68" y="150.0" text-anchor="end" font-size="12" fill="#64748b" font-weight="500">80%</text>
<line x1="80" y1="70.0" x2="720" y2="70.0" stroke="#e2e8f0" stroke-dasharray="4,4" stroke-width="1"/>
<text x="68" y="74.0" text-anchor="end" font-size="12" fill="#64748b" font-weight="500">100%</text>
<line x1="80.0" y1="70" x2="80.0" y2="450" stroke="#e2e8f0" stroke-width="1"/>
<text x="80.0" y="474" text-anchor="middle" font-size="12" fill="#334155" font-weight="bold">Stage 0</text>
<text x="80.0" y="490" text-anchor="middle" font-size="11" fill="#64748b">(after T1)</text>
<line x1="171.42857142857142" y1="70" x2="171.42857142857142" y2="450" stroke="#e2e8f0" stroke-width="1"/>
<text x="171.42857142857142" y="474" text-anchor="middle" font-size="12" fill="#334155" font-weight="bold">Stage 1</text>
<text x="171.42857142857142" y="490" text-anchor="middle" font-size="11" fill="#64748b">(after T2)</text>
<line x1="262.85714285714283" y1="70" x2="262.85714285714283" y2="450" stroke="#e2e8f0" stroke-width="1"/>
<text x="262.85714285714283" y="474" text-anchor="middle" font-size="12" fill="#334155" font-weight="bold">Stage 2</text>
<text x="262.85714285714283" y="490" text-anchor="middle" font-size="11" fill="#64748b">(after T3)</text>
<line x1="354.2857142857143" y1="70" x2="354.2857142857143" y2="450" stroke="#e2e8f0" stroke-width="1"/>
<text x="354.2857142857143" y="474" text-anchor="middle" font-size="12" fill="#334155" font-weight="bold">Stage 3</text>
<text x="354.2857142857143" y="490" text-anchor="middle" font-size="11" fill="#64748b">(after T4)</text>
<line x1="445.71428571428567" y1="70" x2="445.71428571428567" y2="450" stroke="#e2e8f0" stroke-width="1"/>
<text x="445.71428571428567" y="474" text-anchor="middle" font-size="12" fill="#334155" font-weight="bold">Stage 4</text>
<text x="445.71428571428567" y="490" text-anchor="middle" font-size="11" fill="#64748b">(after T5)</text>
<line x1="537.1428571428571" y1="70" x2="537.1428571428571" y2="450" stroke="#e2e8f0" stroke-width="1"/>
<text x="537.1428571428571" y="474" text-anchor="middle" font-size="12" fill="#334155" font-weight="bold">Stage 5</text>
<text x="537.1428571428571" y="490" text-anchor="middle" font-size="11" fill="#64748b">(after T6)</text>
<line x1="628.5714285714286" y1="70" x2="628.5714285714286" y2="450" stroke="#e2e8f0" stroke-width="1"/>
<text x="628.5714285714286" y="474" text-anchor="middle" font-size="12" fill="#334155" font-weight="bold">Stage 6</text>
<text x="628.5714285714286" y="490" text-anchor="middle" font-size="11" fill="#64748b">(after T7)</text>
<line x1="720.0" y1="70" x2="720.0" y2="450" stroke="#e2e8f0" stroke-width="1"/>
<text x="720.0" y="474" text-anchor="middle" font-size="12" fill="#334155" font-weight="bold">Stage 7</text>
<text x="720.0" y="490" text-anchor="middle" font-size="11" fill="#64748b">(after T8)</text>
<text x="400.0" y="508" text-anchor="middle" font-size="13" font-weight="600" fill="#334155">Continual Training Stage</text>
<text transform="rotate(-90)" x="-260.0" y="24" text-anchor="middle" font-size="13" font-weight="600" fill="#334155">Task Accuracy (%)</text>
<polyline points="80.0,117.6 171.4,146.8 262.9,178.3 354.3,211.2 445.7,237.4 537.1,267.3 628.6,295.5 720.0,329.2" fill="none" stroke="#1f77b4" stroke-width="2.5" stroke-linecap="round" stroke-linejoin="round"/>
<circle cx="80.0" cy="117.6" r="4.5" fill="#1f77b4" stroke="#ffffff" stroke-width="1.5"/>
<text x="86.0" y="111.6" font-size="10" font-weight="bold" fill="#1f77b4">87.5%</text>
<circle cx="171.4" cy="146.8" r="4.5" fill="#1f77b4" stroke="#ffffff" stroke-width="1.5"/>
<circle cx="262.9" cy="178.3" r="4.5" fill="#1f77b4" stroke="#ffffff" stroke-width="1.5"/>
<circle cx="354.3" cy="211.2" r="4.5" fill="#1f77b4" stroke="#ffffff" stroke-width="1.5"/>
<circle cx="445.7" cy="237.4" r="4.5" fill="#1f77b4" stroke="#ffffff" stroke-width="1.5"/>
<circle cx="537.1" cy="267.3" r="4.5" fill="#1f77b4" stroke="#ffffff" stroke-width="1.5"/>
<circle cx="628.6" cy="295.5" r="4.5" fill="#1f77b4" stroke="#ffffff" stroke-width="1.5"/>
<circle cx="720.0" cy="329.2" r="4.5" fill="#1f77b4" stroke="#ffffff" stroke-width="1.5"/>
<text x="726.0" y="341.2" font-size="10" font-weight="bold" fill="#1f77b4">31.8%</text>
<polyline points="171.4,115.9 262.9,146.1 354.3,175.5 445.7,206.8 537.1,238.0 628.6,271.6 720.0,298.2" fill="none" stroke="#ff7f0e" stroke-width="2.5" stroke-linecap="round" stroke-linejoin="round"/>
<circle cx="171.4" cy="115.9" r="4.5" fill="#ff7f0e" stroke="#ffffff" stroke-width="1.5"/>
<text x="177.4" y="109.9" font-size="10" font-weight="bold" fill="#ff7f0e">87.9%</text>
<circle cx="262.9" cy="146.1" r="4.5" fill="#ff7f0e" stroke="#ffffff" stroke-width="1.5"/>
<circle cx="354.3" cy="175.5" r="4.5" fill="#ff7f0e" stroke="#ffffff" stroke-width="1.5"/>
<circle cx="445.7" cy="206.8" r="4.5" fill="#ff7f0e" stroke="#ffffff" stroke-width="1.5"/>
<circle cx="537.1" cy="238.0" r="4.5" fill="#ff7f0e" stroke="#ffffff" stroke-width="1.5"/>
<circle cx="628.6" cy="271.6" r="4.5" fill="#ff7f0e" stroke="#ffffff" stroke-width="1.5"/>
<circle cx="720.0" cy="298.2" r="4.5" fill="#ff7f0e" stroke="#ffffff" stroke-width="1.5"/>
<text x="726.0" y="310.2" font-size="10" font-weight="bold" fill="#ff7f0e">39.9%</text>
<polyline points="262.9,117.5 354.3,143.9 445.7,177.1 537.1,205.9 628.6,240.1 720.0,269.2" fill="none" stroke="#2ca02c" stroke-width="2.5" stroke-linecap="round" stroke-linejoin="round"/>
<circle cx="262.9" cy="117.5" r="4.5" fill="#2ca02c" stroke="#ffffff" stroke-width="1.5"/>
<text x="268.9" y="111.5" font-size="10" font-weight="bold" fill="#2ca02c">87.5%</text>
<circle cx="354.3" cy="143.9" r="4.5" fill="#2ca02c" stroke="#ffffff" stroke-width="1.5"/>
<circle cx="445.7" cy="177.1" r="4.5" fill="#2ca02c" stroke="#ffffff" stroke-width="1.5"/>
<circle cx="537.1" cy="205.9" r="4.5" fill="#2ca02c" stroke="#ffffff" stroke-width="1.5"/>
<circle cx="628.6" cy="240.1" r="4.5" fill="#2ca02c" stroke="#ffffff" stroke-width="1.5"/>
<circle cx="720.0" cy="269.2" r="4.5" fill="#2ca02c" stroke="#ffffff" stroke-width="1.5"/>
<text x="726.0" y="281.2" font-size="10" font-weight="bold" fill="#2ca02c">47.6%</text>
<polyline points="354.3,114.1 445.7,144.1 537.1,177.7 628.6,205.0 720.0,236.9" fill="none" stroke="#d62728" stroke-width="2.5" stroke-linecap="round" stroke-linejoin="round"/>
<circle cx="354.3" cy="114.1" r="4.5" fill="#d62728" stroke="#ffffff" stroke-width="1.5"/>
<text x="360.3" y="108.1" font-size="10" font-weight="bold" fill="#d62728">88.4%</text>
<circle cx="445.7" cy="144.1" r="4.5" fill="#d62728" stroke="#ffffff" stroke-width="1.5"/>
<circle cx="537.1" cy="177.7" r="4.5" fill="#d62728" stroke="#ffffff" stroke-width="1.5"/>
<circle cx="628.6" cy="205.0" r="4.5" fill="#d62728" stroke="#ffffff" stroke-width="1.5"/>
<circle cx="720.0" cy="236.9" r="4.5" fill="#d62728" stroke="#ffffff" stroke-width="1.5"/>
<text x="726.0" y="248.9" font-size="10" font-weight="bold" fill="#d62728">56.1%</text>
<polyline points="445.7,116.6 537.1,148.0 628.6,175.3 720.0,209.4" fill="none" stroke="#9467bd" stroke-width="2.5" stroke-linecap="round" stroke-linejoin="round"/>
<circle cx="445.7" cy="116.6" r="4.5" fill="#9467bd" stroke="#ffffff" stroke-width="1.5"/>
<text x="451.7" y="110.6" font-size="10" font-weight="bold" fill="#9467bd">87.7%</text>
<circle cx="537.1" cy="148.0" r="4.5" fill="#9467bd" stroke="#ffffff" stroke-width="1.5"/>
<circle cx="628.6" cy="175.3" r="4.5" fill="#9467bd" stroke="#ffffff" stroke-width="1.5"/>
<circle cx="720.0" cy="209.4" r="4.5" fill="#9467bd" stroke="#ffffff" stroke-width="1.5"/>
<text x="726.0" y="221.4" font-size="10" font-weight="bold" fill="#9467bd">63.3%</text>
<polyline points="537.1,116.7 628.6,144.7 720.0,180.8" fill="none" stroke="#8c564b" stroke-width="2.5" stroke-linecap="round" stroke-linejoin="round"/>
<circle cx="537.1" cy="116.7" r="4.5" fill="#8c564b" stroke="#ffffff" stroke-width="1.5"/>
<text x="543.1" y="110.7" font-size="10" font-weight="bold" fill="#8c564b">87.7%</text>
<circle cx="628.6" cy="144.7" r="4.5" fill="#8c564b" stroke="#ffffff" stroke-width="1.5"/>
<circle cx="720.0" cy="180.8" r="4.5" fill="#8c564b" stroke="#ffffff" stroke-width="1.5"/>
<text x="726.0" y="192.8" font-size="10" font-weight="bold" fill="#8c564b">70.8%</text>
<polyline points="628.6,112.9 720.0,142.1" fill="none" stroke="#e377c2" stroke-width="2.5" stroke-linecap="round" stroke-linejoin="round"/>
<circle cx="628.6" cy="112.9" r="4.5" fill="#e377c2" stroke="#ffffff" stroke-width="1.5"/>
<text x="634.6" y="106.9" font-size="10" font-weight="bold" fill="#e377c2">88.7%</text>
<circle cx="720.0" cy="142.1" r="4.5" fill="#e377c2" stroke="#ffffff" stroke-width="1.5"/>
<text x="726.0" y="154.1" font-size="10" font-weight="bold" fill="#e377c2">81.0%</text>
<rect x="735" y="73" width="155" height="239" fill="#f8fafc" stroke="#e2e8f0" rx="6" />
<text x="745" y="89" font-size="12" font-weight="bold" fill="#1e293b">Task Traces</text>
<line x1="745" y1="109" x2="765" y2="109" stroke="#1f77b4" stroke-width="3" stroke-linecap="round"/>
<circle cx="755" cy="109" r="3.5" fill="#1f77b4" stroke="#fff" stroke-width="1"/>
<text x="773" y="113" font-size="11" font-weight="600" fill="#334155">T1 <tspan font-weight="normal" fill="#ef4444">(-55.7%)</tspan></text>
<line x1="745" y1="135" x2="765" y2="135" stroke="#ff7f0e" stroke-width="3" stroke-linecap="round"/>
<circle cx="755" cy="135" r="3.5" fill="#ff7f0e" stroke="#fff" stroke-width="1"/>
<text x="773" y="139" font-size="11" font-weight="600" fill="#334155">T2 <tspan font-weight="normal" fill="#ef4444">(-48.0%)</tspan></text>
<line x1="745" y1="161" x2="765" y2="161" stroke="#2ca02c" stroke-width="3" stroke-linecap="round"/>
<circle cx="755" cy="161" r="3.5" fill="#2ca02c" stroke="#fff" stroke-width="1"/>
<text x="773" y="165" font-size="11" font-weight="600" fill="#334155">T3 <tspan font-weight="normal" fill="#ef4444">(-39.9%)</tspan></text>
<line x1="745" y1="187" x2="765" y2="187" stroke="#d62728" stroke-width="3" stroke-linecap="round"/>
<circle cx="755" cy="187" r="3.5" fill="#d62728" stroke="#fff" stroke-width="1"/>
<text x="773" y="191" font-size="11" font-weight="600" fill="#334155">T4 <tspan font-weight="normal" fill="#ef4444">(-32.3%)</tspan></text>
<line x1="745" y1="213" x2="765" y2="213" stroke="#9467bd" stroke-width="3" stroke-linecap="round"/>
<circle cx="755" cy="213" r="3.5" fill="#9467bd" stroke="#fff" stroke-width="1"/>
<text x="773" y="217" font-size="11" font-weight="600" fill="#334155">T5 <tspan font-weight="normal" fill="#ef4444">(-24.4%)</tspan></text>
<line x1="745" y1="239" x2="765" y2="239" stroke="#8c564b" stroke-width="3" stroke-linecap="round"/>
<circle cx="755" cy="239" r="3.5" fill="#8c564b" stroke="#fff" stroke-width="1"/>
<text x="773" y="243" font-size="11" font-weight="600" fill="#334155">T6 <tspan font-weight="normal" fill="#ef4444">(-16.9%)</tspan></text>
<line x1="745" y1="265" x2="765" y2="265" stroke="#e377c2" stroke-width="3" stroke-linecap="round"/>
<circle cx="755" cy="265" r="3.5" fill="#e377c2" stroke="#fff" stroke-width="1"/>
<text x="773" y="269" font-size="11" font-weight="600" fill="#334155">T7 <tspan font-weight="normal" fill="#ef4444">(-7.7%)</tspan></text>
</svg>